<?xml version="1.0" encoding="utf-8"?>
<svg version="1.1" id="ea52d8b3-b526-4047-ac92-29214652b713"
	 xmlns="http://www.w3.org/2000/svg" xmlns:xlink="http://www.w3.org/1999/xlink" x="0px" y="0px" viewBox="0 0 398.8 448.5"
	 style="enable-background:new 0 0 398.8 448.5;" xml:space="preserve">
<style type="text/css">
	.st0{fill:#212529;}
</style>
<path class="st0" d="M0.1,224c0-44.6,0-89.2-0.1-133.9C0,86.6,1,85,4.4,83.5C68.1,56,131.9,28.3,195.6,0.7c2.6-0.9,5.4-0.9,7.9,0.1
	C266.8,28.1,330,55.6,393.3,82.9c4.3,1.8,5.5,4,5.5,8.6c-0.1,88.7-0.1,177.4,0,266.1c0,4.2-1.1,6.1-5,7.8
	c-63.4,27.4-126.9,54.8-190.3,82.4c-2.5,1-5.4,1-7.9,0.1C132.3,420.6,69.1,393,5.8,365.8c-4.5-1.9-5.8-4.2-5.8-9
	C0.2,312.5,0.1,268.3,0.1,224z M378.9,224.5c-0.6-0.7-1.2-1.3-1.8-1.9c-30.1-25.2-60.1-50.5-90.2-75.8c-2.7-2.3-4.7-1.5-7.2-0.4
	c-23.9,11.2-47.7,22.4-71.7,33.5c-3.1,1.4-4.5,3-4.5,6.6c0.2,25.2,0.2,50.3,0,75.5c0,3.3,1,5,4,6.4c22,10.1,44.2,20,65.8,31
	c8.2,4.1,13.9,3.9,19.7-2.9c2.2-2.5,5.1-4.4,7.7-6.6L378.9,224.5z M20.1,224.1c0.5,0.7,1.1,1.3,1.7,1.9
	c30.1,25.2,60.1,50.5,90.2,75.7c2.7,2.3,4.6,1.5,7.2,0.3c23.9-11.2,47.7-22.5,71.7-33.4c3.5-1.6,4.5-3.6,4.4-7.2
	c-0.2-24.8-0.2-49.6,0-74.4c0-3.7-1-5.6-4.5-7.2c-23.5-10.8-46.9-21.7-70.2-32.8c-4.1-2-6.8-1.8-10.3,1.2
	c-27.3,23.2-54.9,46.2-82.3,69.2C25.3,219.6,22.8,221.8,20.1,224.1L20.1,224.1z M18.1,89.3c0.4,0.4,0.8,0.8,1.3,1.1
	c30.5,14.3,61,28.6,91.6,42.7c1.4,0.6,4.1-0.2,5.4-1.3c25.2-21,50.4-42.1,75.4-63.3c1.9-1.9,3.1-4.4,3.2-7.1c0.3-13,0.1-26,0.1-39.1
	V10.7L18.1,89.3z M203.7,10.8c0,17.8,0.1,34-0.1,50.2c0,3.6,1.2,5.8,3.9,8.1c24.9,20.8,49.8,41.7,74.6,62.6c2.6,2.2,4.5,2.2,7.5,0.8
	c29-13.7,58.1-27.2,87.1-40.8c1.2-0.6,2.3-1.2,4.3-2.3L203.7,10.8z M17.4,359l177.7,78.8c0-17.4-0.1-33.5,0.1-49.5
	c0.3-3.5-1.3-7-4.1-9.1c-24.8-20.6-49.6-41.4-74.2-62.3c-2.5-2.1-4.4-2.5-7.5-1c-22.2,10.6-44.5,20.9-66.8,31.3L17.4,359z
	 M203.7,437.8L381.4,359c-32-14.9-62.8-29.4-93.6-43.6c-1.6-0.4-3.2-0.1-4.6,0.8c-25.8,21.5-51.5,43-77.1,64.6
	c-1.1,0.9-2.3,2.5-2.3,3.8C203.6,401.9,203.7,419.3,203.7,437.8z M9,222l97.2-81.6L9,95.1V222z M292.7,140.5l97,81.4V95.2
	L292.7,140.5z M106.1,308.1L8.9,226.5v126.9L106.1,308.1z M389.7,353.4V226.7l-97,81.4L389.7,353.4z M204.1,77.5v94.8l72.6-33.9
	L204.1,77.5z M122,310.1c24.5,20.5,48.4,40.6,72.9,61.1v-95.1L122,310.1z M203.8,371.4l73-61.2l-73-34V371.4z M194.8,77.4l-72.7,61
	l72.7,33.9V77.4z"/>
</svg>
