<?xml version="1.0" standalone="no"?>
<!DOCTYPE svg PUBLIC "-//W3C//DTD SVG 20010904//EN"
 "http://www.w3.org/TR/2001/REC-SVG-20010904/DTD/svg10.dtd">
<svg version="1.0" xmlns="http://www.w3.org/2000/svg"
 width="512.000000pt" height="512.000000pt" viewBox="0 0 512.000000 512.000000"
 preserveAspectRatio="xMidYMid meet">
<g transform="translate(0.000000,512.000000) scale(0.100000,-0.100000)"
fill="#000000" stroke="none">
<path d="M2515 4646 c-16 -7 -61 -28 -100 -46 -38 -18 -182 -82 -320 -142
-137 -61 -272 -120 -300 -132 -27 -13 -285 -123 -572 -246 l-523 -223 0 -1297
0 -1297 67 -28 c38 -16 93 -39 123 -53 30 -13 69 -30 85 -37 17 -8 235 -101
485 -208 547 -234 1051 -456 1064 -468 6 -5 18 -9 27 -9 10 0 159 63 331 139
172 76 414 182 538 236 124 53 239 103 255 110 17 8 59 26 95 40 36 15 88 37
115 49 28 13 159 69 293 126 l242 103 0 1297 0 1297 -597 256 c-329 141 -746
321 -927 401 -181 80 -334 146 -340 146 -6 -1 -24 -7 -41 -14z m4 -353 l0
-258 -137 -113 c-75 -62 -151 -125 -168 -140 -18 -15 -51 -43 -75 -64 -24 -20
-114 -95 -199 -167 -85 -73 -162 -136 -171 -141 -15 -9 -57 9 -354 149 -44 21
-163 77 -265 124 -102 48 -207 97 -235 110 l-50 25 35 15 c19 8 100 44 180 80
80 36 255 114 390 175 135 60 270 121 300 135 30 13 161 70 290 126 129 56
244 106 255 112 23 10 199 87 203 88 1 1 2 -115 1 -256z m316 155 c154 -66
797 -351 913 -404 41 -19 75 -34 77 -34 2 0 41 -17 87 -39 45 -21 137 -62 203
-91 66 -29 124 -56 128 -60 4 -4 -27 -23 -70 -43 -43 -19 -114 -52 -158 -73
-44 -20 -140 -65 -214 -100 -73 -35 -135 -64 -137 -64 -2 0 -61 -28 -131 -61
-71 -34 -138 -65 -150 -70 -22 -8 -59 19 -278 206 -79 68 -458 385 -482 405
-23 18 -23 20 -23 274 l0 255 48 -20 c26 -12 110 -48 187 -81z m-315 -963 c0
-421 -1 -445 -17 -435 -10 6 -161 77 -336 159 -175 81 -318 151 -318 155 0 3
132 117 293 252 161 135 311 261 333 279 22 19 41 35 43 35 1 0 2 -200 2 -445z
m250 305 c74 -62 157 -131 184 -154 110 -91 204 -170 250 -209 27 -23 53 -43
58 -45 26 -11 -4 -33 -109 -81 -144 -66 -272 -126 -422 -197 -63 -30 -118 -54
-122 -54 -5 0 -9 199 -9 442 0 419 1 440 18 426 9 -8 78 -66 152 -128z m-1705
-156 c149 -69 313 -146 365 -171 52 -24 130 -61 173 -80 42 -20 77 -39 77 -43
0 -4 -35 -36 -77 -71 -43 -35 -80 -66 -83 -69 -3 -3 -32 -27 -65 -55 -33 -27
-62 -52 -65 -55 -3 -3 -72 -61 -155 -129 -82 -69 -193 -161 -245 -206 -52 -44
-121 -103 -152 -129 l-58 -48 0 591 c0 325 4 591 8 591 4 0 129 -57 277 -126z
m3275 -466 l0 -591 -22 19 c-12 10 -31 27 -43 37 -11 10 -203 172 -427 360
-225 188 -408 345 -408 349 0 5 10 12 23 17 21 8 73 33 255 117 42 20 104 49
137 64 33 15 94 43 135 63 41 19 125 58 185 86 61 28 117 55 125 60 41 26 40
36 40 -581z m-2408 61 c84 -39 203 -94 263 -123 61 -28 158 -74 217 -101 l108
-50 0 -396 0 -397 -37 -15 c-21 -8 -85 -38 -143 -65 -299 -141 -561 -262 -567
-262 -5 0 -150 115 -163 130 -3 3 -57 48 -120 100 -63 52 -119 100 -125 106
-5 6 -77 66 -160 135 -82 68 -152 126 -155 129 -3 3 -40 34 -82 69 -43 35 -78
67 -78 70 0 4 35 36 78 71 42 36 88 74 102 86 14 13 75 64 135 114 128 106
130 108 215 180 36 30 74 63 85 72 202 169 261 218 267 218 3 0 75 -32 160
-71z m1603 -80 c99 -83 196 -164 215 -181 19 -16 135 -113 258 -216 122 -102
222 -189 222 -193 0 -3 -34 -34 -75 -68 -41 -34 -80 -68 -87 -74 -7 -7 -26
-23 -42 -35 -16 -12 -54 -44 -85 -71 -31 -26 -127 -107 -214 -180 -87 -72
-168 -140 -180 -150 -147 -125 -192 -161 -198 -161 -8 0 -59 23 -269 122 -63
30 -197 92 -297 138 l-183 85 0 395 0 395 108 50 c59 27 166 77 238 111 72 34
157 73 190 88 32 15 91 42 129 61 39 18 75 34 80 34 6 0 91 -67 190 -150z
m-2610 -730 c55 -46 102 -86 105 -89 3 -3 43 -37 90 -75 47 -38 87 -72 90 -75
3 -3 75 -63 160 -135 85 -71 160 -134 166 -140 6 -6 41 -35 78 -65 36 -29 66
-56 66 -60 0 -4 -100 -53 -222 -110 -284 -132 -386 -180 -525 -245 -62 -30
-121 -56 -132 -60 l-21 -6 0 592 0 592 23 -20 c12 -11 67 -58 122 -104z m3415
-474 c0 -322 -3 -585 -6 -585 -7 0 -130 56 -314 142 -63 30 -220 103 -347 163
-128 59 -233 111 -233 114 0 4 46 45 103 92 85 72 349 293 551 463 27 22 90
76 140 118 50 43 94 78 99 78 4 0 7 -263 7 -585z m-1820 -316 c0 -478 3 -449
-46 -404 -6 6 -141 119 -300 252 -159 133 -300 251 -313 262 l-23 20 83 39
c203 94 449 209 509 239 36 17 71 32 78 32 9 1 12 -94 12 -440z m221 383 c68
-33 149 -71 179 -85 31 -14 96 -45 145 -68 50 -23 119 -54 153 -70 l64 -29
-39 -34 c-21 -19 -101 -86 -178 -151 -77 -64 -149 -124 -160 -133 -11 -10 -76
-64 -145 -121 -69 -58 -133 -111 -142 -119 -17 -14 -18 7 -18 426 0 243 4 442
8 442 5 0 65 -26 133 -58z m-911 -351 c30 -25 57 -48 60 -51 3 -3 61 -53 130
-110 69 -58 136 -114 150 -126 14 -12 93 -78 176 -148 83 -69 156 -132 163
-139 8 -10 11 -86 9 -264 l-3 -250 -195 84 c-206 89 -563 246 -665 293 -33 15
-94 42 -135 60 -41 18 -102 45 -135 60 -33 15 -159 71 -280 125 -121 54 -223
101 -227 105 -7 5 116 64 751 361 69 32 130 55 135 52 6 -4 36 -27 66 -52z
m1704 -20 c70 -33 129 -61 131 -61 2 0 67 -31 146 -69 79 -37 171 -80 204 -96
174 -79 234 -110 228 -115 -5 -4 -107 -51 -228 -105 -121 -54 -247 -110 -280
-126 -91 -42 -575 -256 -790 -349 -104 -45 -204 -88 -220 -95 -17 -8 -51 -23
-78 -34 l-47 -20 2 257 3 257 251 210 c246 205 281 235 431 362 62 52 78 61
96 54 12 -5 80 -36 151 -70z"/>
</g>
</svg>
