<svg id="ea52d8b3-b526-4047-ac92-29214652b713" data-name="Layer 1" xmlns="http://www.w3.org/2000/svg" viewBox="0 0 398.81 448.54"><defs><style>.a3049bd3-4e94-4ba9-a198-c5c7a237bd40{fill:#fff;}</style></defs><path class="a3049bd3-4e94-4ba9-a198-c5c7a237bd40" d="M56.72,255.73q0-66.93-.08-133.86c0-3.52.94-5.18,4.31-6.64q95.66-41.32,191.22-82.82a11.07,11.07,0,0,1,7.91.11c63.3,27.29,126.49,54.82,189.79,82.1,4.31,1.85,5.54,4,5.53,8.59q-.22,133.07,0,266.12c0,4.17-1.14,6.13-5.05,7.81q-95.16,41.07-190.25,82.36a11.09,11.09,0,0,1-7.92.07c-63.29-27.28-126.48-54.82-189.79-82.08-4.5-1.94-5.8-4.2-5.78-9C56.8,344.26,56.72,300,56.72,255.73Zm378.73.54a24.47,24.47,0,0,0-1.78-1.95q-45.1-37.86-90.17-75.77c-2.71-2.29-4.66-1.53-7.17-.35-23.87,11.2-47.73,22.43-71.68,33.47-3.14,1.45-4.49,3-4.46,6.65q.29,37.74,0,75.48c0,3.32,1,5,4,6.39,22,10.11,44.19,20,65.79,30.95,8.17,4.15,13.85,3.91,19.73-2.88,2.19-2.53,5.12-4.41,7.72-6.59Zm-358.78-.45a20.59,20.59,0,0,0,1.7,1.91q45.1,37.84,90.15,75.73c2.68,2.27,4.65,1.52,7.17.34,23.86-11.21,47.71-22.47,71.67-33.44,3.54-1.62,4.46-3.57,4.44-7.21q-.23-37.2,0-74.39c0-3.71-1-5.58-4.5-7.17q-35.24-16.14-70.2-32.84c-4.13-2-6.77-1.77-10.3,1.23-27.34,23.2-54.86,46.18-82.33,69.23C81.91,251.36,79.38,253.53,76.67,255.82ZM74.71,121A9.61,9.61,0,0,0,76,122.12c30.49,14.28,61,28.59,91.55,42.68,1.35.62,4.09-.18,5.39-1.27q37.86-31.49,75.4-63.34a10.67,10.67,0,0,0,3.19-7.12c.31-13,.15-26,.15-39.07V42.47ZM260.29,42.48c0,17.79.12,34-.09,50.24-.05,3.61,1.19,5.85,3.87,8.09q37.41,31.17,74.6,62.62c2.62,2.22,4.52,2.21,7.49.81,29-13.7,58.09-27.21,87.14-40.78,1.18-.55,2.3-1.23,4.34-2.33ZM74,390.72l177.69,78.79c0-17.42-.13-33.46.09-49.5a10.3,10.3,0,0,0-4.13-9.06Q210.41,380,173.47,348.7c-2.52-2.13-4.37-2.49-7.47-1-22.19,10.57-44.51,20.89-66.79,31.29ZM260.3,469.5,438,390.75c-32-14.93-62.77-29.35-93.64-43.61a5.27,5.27,0,0,0-4.56.81q-38.66,32.18-77.08,64.62c-1.11.93-2.31,2.54-2.32,3.84C260.25,433.68,260.3,451,260.3,469.5ZM65.59,253.76l97.19-81.56L65.59,126.83Zm283.7-81.55,97,81.39V126.91ZM162.72,339.8,65.5,258.25V385.17Zm283.6,45.32V258.44l-97,81.41ZM260.74,109.23v94.83l72.61-33.92ZM178.63,341.86c24.48,20.53,48.37,40.56,72.86,61.08V307.85Zm81.8,61.23,73-61.2-73-34Zm-9-293.94-72.72,61,72.72,33.91Z" transform="translate(-56.6 -31.73)"/></svg>